<svg width="474" height="258" viewBox="0 0 474 258" fill="none" xmlns="http://www.w3.org/2000/svg">
<g clip-path="url(#clip0)">
<path opacity="0.1" d="M468.976 239.372C467.136 243.9 464.871 248.245 462.212 252.348C460.964 254.305 459.596 256.182 458.115 257.969C458.102 257.987 458.086 258.004 458.069 258.018H0L0.0618259 257.969C0.474 257.648 2.89346 255.695 6.65661 252.348C9.35635 249.951 12.7444 246.835 16.5488 243.085C47.6638 212.556 107.433 140.294 57.6549 74.0972C11.3801 12.5585 61.2037 1.39139 94.0704 0.0880016C106.698 -0.405476 119.296 1.64888 131.108 6.12797C146.293 11.8842 174.045 20.7078 210.2 24.7536C211.387 24.8852 212.583 25.0168 213.795 25.136C232.937 27.0802 252.208 27.4296 271.408 26.1803C271.973 26.1474 272.542 26.1063 273.115 26.0652C292.109 24.7348 310.958 21.826 329.467 17.3691C330.667 17.0772 331.849 16.8017 333.028 16.5263C394.702 2.29183 451.557 50.8048 437.341 105.629C432.086 125.908 433.421 147.522 450.943 165.009C479.63 193.552 476.156 221.663 468.976 239.372Z" fill="#CECECE"/>
<path d="M468.975 239.37C467.136 243.899 464.871 248.243 462.212 252.347C460.964 254.303 459.596 256.18 458.115 257.967H0.0616455C0.473819 257.646 2.89328 255.693 6.65643 252.347C9.35617 249.949 12.7442 246.833 16.5486 243.083L64.8265 233.133C65.4503 233.005 66.0856 232.94 66.7225 232.94L118.191 232.866H118.244L143.737 232.833H143.795L165.31 232.808H179.394H193.82L252.934 232.726H253.029H257.608H265.654H275.699H278.37L288.522 232.611H291.877L321.405 232.57H330.835H335.369L369.477 232.524H379.633L411.939 232.479L439.208 232.446C439.968 232.447 440.724 232.536 441.463 232.714L468.975 239.37Z" fill="#454B69"/>
<path opacity="0.4" d="M6.65643 252.347H462.212C460.964 254.303 459.596 256.18 458.115 257.967H0.0616455C0.465576 257.626 2.88504 255.673 6.65643 252.347Z" fill="black"/>
<path d="M302.214 124.475L301.299 124.652L259.933 132.579C247.919 134.882 235.731 137.197 223.526 136.312C214.685 135.671 206.425 133.056 197.93 130.762C193.128 129.463 188.038 128.944 186.41 123.583C184.163 116.182 187.819 105.225 188.681 97.725C189.505 90.3652 189.992 82.8203 188.524 75.5469C188.198 73.9124 187.769 72.3001 187.238 70.7198C185.767 66.3656 183.455 61.8387 184.703 57.4187C185.688 53.9115 188.693 51.4076 191.504 49.0886C197.011 44.5658 202.633 39.4962 204.817 32.7161C205.889 29.4268 206.091 25.8867 207.245 22.6221C209.434 16.4136 214.932 11.7716 221.049 9.3128C227.166 6.85405 233.892 6.33188 240.491 6.33188C246.318 6.3322 252.138 6.71817 257.914 7.48724C264.212 8.30957 270.567 9.66229 276.103 12.7789C281.638 15.8955 286.304 21.0021 287.594 27.2271C289.42 36.0301 284.351 45.4046 287.071 53.9527C288.439 58.274 291.605 61.7647 293.802 65.7201C295.593 69.0288 296.699 72.6632 297.053 76.4069C297.407 80.1507 297.002 83.9272 295.863 87.5117C293.233 95.6404 286.795 103.864 290.092 111.746C292.19 116.758 297.548 119.434 301.283 123.406C301.615 123.762 301.926 124.119 302.214 124.475Z" fill="#454B69"/>
<path opacity="0.1" d="M301.299 123.439V124.652L259.933 132.579C247.918 134.882 235.731 137.197 223.526 136.313C214.685 135.671 206.425 133.056 197.93 130.762C193.128 129.463 188.038 128.944 186.41 123.583C184.163 116.182 187.819 105.225 188.681 97.725C189.505 90.3652 202.196 63.4957 200.729 56.2223L276.569 59.5116C277.08 63.5286 297.124 83.692 295.875 87.5446C293.245 95.6733 286.807 103.897 290.105 111.778C292.207 116.791 297.565 119.467 301.299 123.439Z" fill="black"/>
<path d="M223.81 103.095C224.26 105.64 224.499 108.44 223.196 110.66C221.461 113.637 217.677 114.587 214.293 115.261L202.546 117.605C201.747 117.765 200.898 117.946 200.3 118.493C199.595 119.122 199.356 120.117 199.253 121.054C198.779 125.297 200.284 129.479 201.656 133.521C204.43 141.707 206.759 150.066 210.266 157.964C213.774 165.863 218.588 173.403 225.459 178.683C232.33 183.962 241.423 186.774 249.835 184.71C257.164 182.914 263.173 177.754 268.354 172.281C272.628 167.758 276.626 162.824 278.7 156.957C280.13 152.928 280.596 148.635 281.045 144.384C281.74 137.865 282.435 131.347 283.131 124.829C283.456 121.77 283.67 118.328 281.68 115.981C280.806 114.949 279.619 114.262 278.407 113.625C273.898 111.236 269.15 109.262 264.954 106.384C260.758 103.506 257.036 99.5423 255.762 94.6248C255 91.6727 255.136 88.4574 253.837 85.7067C252.386 82.623 249.303 80.5343 246.006 79.6174C242.709 78.7005 239.23 78.8238 235.834 79.2062C232.437 79.5886 219.347 80.5672 217.941 84.3869C217.187 86.4427 220.315 90.8544 221.057 92.8774C222.278 96.1945 223.2 99.6139 223.81 103.095Z" fill="#EFB7B9"/>
<path opacity="0.1" d="M223.81 103.095C224.26 105.64 224.499 108.44 223.196 110.66C221.461 113.637 217.677 114.587 214.293 115.261L202.546 117.605C201.747 117.765 200.898 117.946 200.3 118.493C199.595 119.122 199.356 120.117 199.253 121.054C198.779 125.297 200.284 129.479 201.656 133.521C204.43 141.707 206.759 150.066 210.266 157.964C213.774 165.863 218.588 173.403 225.459 178.683C232.33 183.962 241.423 186.774 249.835 184.71C257.164 182.914 263.173 177.754 268.354 172.281C272.628 167.758 276.626 162.824 278.7 156.957C280.13 152.928 280.596 148.635 281.045 144.384C281.74 137.865 282.435 131.347 283.131 124.829C283.456 121.77 283.67 118.328 281.68 115.981C280.806 114.949 279.619 114.262 278.407 113.625C273.898 111.236 269.15 109.262 264.954 106.384C260.758 103.506 257.036 99.5423 255.762 94.6248C255 91.6727 255.136 88.4574 253.837 85.7067C252.386 82.623 249.303 80.5343 246.006 79.6174C242.709 78.7005 239.23 78.8238 235.834 79.2062C232.437 79.5886 219.347 80.5672 217.941 84.3869C217.187 86.4427 220.315 90.8544 221.057 92.8774C222.278 96.1945 223.2 99.6139 223.81 103.095Z" fill="black"/>
<path d="M252.081 147.805L258.969 133.258C262.196 126.441 265.494 119.278 265.151 111.75C265.086 110.253 265.069 108.382 266.388 107.704C266.961 107.471 267.584 107.391 268.197 107.474C275.448 107.843 282.604 109.287 289.429 111.758C290.752 112.235 292.108 112.786 293.035 113.838C293.962 114.891 294.338 116.305 294.655 117.662C295.736 122.25 296.525 126.901 297.017 131.588C298.253 143.191 297.639 154.897 297.017 166.537L295.187 202.074C295.196 202.578 295.094 203.078 294.886 203.538C294.432 204.36 293.41 204.635 292.491 204.792C288.95 205.396 285.332 205.273 281.746 205.137C256.521 204.183 231.164 202.719 206.103 205.77C206.216 202.072 206.157 198.372 205.926 194.669C204.933 178.679 200.778 163.079 196.698 147.587C194.319 138.541 192.015 128.673 195.844 120.15C196.408 118.804 197.217 117.574 198.231 116.523C199.859 114.932 202.081 114.093 204.282 113.493C208.078 112.463 212.011 112.019 215.942 112.177L241.93 168.618C243.117 171.2 244.094 173.917 245.276 176.467C246.34 172.063 245.062 166.903 246.34 162.129C247.717 157.175 249.885 152.434 252.081 147.805Z" fill="white"/>
<path d="M249.365 186.639C254.015 186.931 258.532 184.554 261.73 181.195C264.929 177.836 267.039 173.576 268.824 169.271C271.39 163.135 273.429 156.793 274.92 150.313C276.157 144.803 277.034 139.1 276.181 133.517C275.002 125.807 270.629 118.801 269.883 111.038C269.755 109.682 269.838 108.094 270.93 107.276C271.606 106.771 272.496 106.701 273.337 106.651C281.111 106.191 289.651 106.277 295.673 111.199C297.507 112.695 298.995 114.566 300.788 116.108C305.058 119.808 311.092 121.692 313.833 126.605C314.79 128.315 315.247 130.252 315.915 132.094C317.489 136.452 320.214 140.284 322.922 144.055C320.296 155.107 317.279 166.167 314.654 177.219C313.116 183.703 311.566 190.212 309.151 196.42C307.568 200.491 305.578 204.644 306.064 209.002C306.258 210.716 306.831 212.357 307.329 214.01C309.078 219.811 309.897 225.851 309.757 231.908L192.147 232.195C197.782 224.137 199.434 214.252 198.862 204.446C198.585 199.747 197.522 195.018 195.152 190.952C191.418 184.579 184.848 180.426 178.372 176.87C173.838 174.403 168.971 188.283 164.07 186.692C164.861 181.109 165.224 159.556 164.894 153.935C164.787 152.093 164.622 150.202 165.191 148.442C165.579 147.237 166.292 146.16 166.774 144.988C168.707 140.297 166.864 134.298 169.989 130.305C172.149 127.53 175.936 126.741 179.015 125.03C182.177 123.27 184.621 120.507 187.374 118.147C192.777 113.571 199.378 110.631 206.4 109.673C208.449 112.897 209.694 116.562 210.031 120.364C210.242 122.752 210.089 125.174 210.423 127.551C210.881 130.77 212.216 133.792 213.539 136.769C219.05 149.182 224.581 161.632 231.563 173.288C233.538 176.578 235.685 179.867 238.546 182.428C241.406 184.99 245.524 186.82 249.365 186.639Z" fill="#CECECE"/>
<path opacity="0.1" d="M249.365 186.639C254.015 186.931 258.532 184.554 261.73 181.195C264.929 177.836 267.039 173.576 268.824 169.271C271.39 163.135 273.429 156.793 274.92 150.313C276.157 144.803 277.034 139.1 276.181 133.517C275.002 125.807 270.629 118.801 269.883 111.038C269.755 109.682 269.838 108.094 270.93 107.276C271.606 106.771 272.496 106.701 273.337 106.651C281.111 106.191 289.651 106.277 295.673 111.199C297.507 112.695 298.995 114.566 300.788 116.108C305.058 119.808 311.092 121.692 313.833 126.605C314.79 128.315 315.247 130.252 315.915 132.094C317.489 136.452 320.214 140.284 322.922 144.055C320.296 155.107 317.279 166.167 314.654 177.219C313.116 183.703 311.566 190.212 309.151 196.42C307.568 200.491 305.578 204.644 306.064 209.002C306.258 210.716 306.831 212.357 307.329 214.01C309.078 219.811 309.897 225.851 309.757 231.908L192.147 232.195C197.782 224.137 199.434 214.252 198.862 204.446C198.585 199.747 197.522 195.018 195.152 190.952C191.418 184.579 184.848 180.426 178.372 176.87C173.838 174.403 168.971 188.283 164.07 186.692C164.861 181.109 165.224 159.556 164.894 153.935C164.787 152.093 164.622 150.202 165.191 148.442C165.579 147.237 166.292 146.16 166.774 144.988C168.707 140.297 166.864 134.298 169.989 130.305C172.149 127.53 175.936 126.741 179.015 125.03C182.177 123.27 184.621 120.507 187.374 118.147C192.777 113.571 199.378 110.631 206.4 109.673C208.449 112.897 209.694 116.562 210.031 120.364C210.242 122.752 210.089 125.174 210.423 127.551C210.881 130.77 212.216 133.792 213.539 136.769C219.05 149.182 224.581 161.632 231.563 173.288C233.538 176.578 235.685 179.867 238.546 182.428C241.406 184.99 245.524 186.82 249.365 186.639Z" fill="black"/>
<path d="M243.145 102.161C262.659 102.161 278.477 86.3818 278.477 66.9166C278.477 47.4514 262.659 31.6718 243.145 31.6718C223.632 31.6718 207.814 47.4514 207.814 66.9166C207.814 86.3818 223.632 102.161 243.145 102.161Z" fill="#EFB7B9"/>
<path d="M224.606 113.884C225.575 104.764 221.774 95.8418 217.471 87.7378C215.41 83.8647 213.201 80.0039 212.166 75.7484C211.132 71.4928 211.429 66.674 214.075 63.175C216.325 60.1982 219.895 58.5906 223.196 56.8431C232.516 51.9092 241.035 44.6563 245.132 34.957C242.816 36.2151 243.418 39.969 245.462 41.626C247.506 43.283 250.293 43.6037 252.807 44.3932C261.974 47.2713 267.472 56.3909 271.882 64.9101C272.604 66.2999 273.337 67.7677 273.329 69.3342C273.321 70.9008 272.604 72.2905 271.853 73.6227C269.677 77.4876 267.014 81.2004 266.025 85.5217C264.892 90.4556 266.087 95.6445 267.641 100.484C269.29 105.632 271.478 110.82 275.435 114.513C279.392 118.205 285.529 120.039 290.397 117.654C285.538 109.32 280.505 100.007 282.401 90.5584C283.316 86.0356 285.777 81.924 286.824 77.4259C288.818 68.845 285.496 60.0173 282.236 51.827L272.492 27.3834C271.004 23.6459 269.31 19.6576 265.897 17.5402C263.589 16.1134 260.795 15.7434 258.091 15.4844C249.386 14.7114 240.367 14.9663 232.264 18.198C217.5 24.0818 208.243 38.5875 200.898 52.6575C198.697 56.8719 196.524 61.3495 196.615 66.1025C196.665 68.7093 197.394 71.2461 197.988 73.7871C200.403 84.132 200.535 94.8509 200.659 105.471C200.753 113.62 200.329 121.301 196.755 128.722C201.652 129.693 208.754 132.312 213.601 130.396C219.919 127.904 223.81 120.228 224.606 113.884Z" fill="#454B69"/>
<g opacity="0.1">
<path opacity="0.1" d="M200.638 105.299C200.654 104.139 200.654 102.969 200.638 101.787C200.514 91.1669 200.382 80.4479 197.967 70.1031C197.428 68.09 197.006 66.0472 196.706 63.985C196.621 64.6931 196.584 65.406 196.595 66.1189C196.644 68.7257 197.374 71.2626 197.967 73.8036C200.37 84.0867 200.518 94.7399 200.638 105.299Z" fill="black"/>
<path opacity="0.1" d="M286.823 77.4259C287.365 75.0235 287.545 72.5543 287.359 70.099C287.278 71.3202 287.099 72.5329 286.823 73.7255C285.777 78.2482 283.316 82.3228 282.401 86.858C282.007 88.8583 281.896 90.9039 282.071 92.9349C282.137 92.1373 282.247 91.3439 282.401 90.5584C283.316 86.0233 285.777 81.9322 286.823 77.4259Z" fill="black"/>
<path opacity="0.1" d="M273.007 67.447C273.209 66.863 273.317 66.2512 273.329 65.6338C273.329 64.0672 272.604 62.5994 271.882 61.2097C267.472 52.6904 261.99 43.579 252.807 40.6927C250.293 39.9033 247.51 39.5826 245.462 37.9256C244.935 37.4727 244.503 36.9194 244.193 36.2981C243.883 35.6768 243.701 34.9999 243.657 34.3073C239.189 42.4895 231.514 48.7474 223.196 53.1427C219.899 54.8901 216.325 56.4977 214.075 59.4746C211.96 62.2705 211.346 65.9092 211.713 69.4288C211.921 67.17 212.737 65.0092 214.075 63.175C216.325 60.1982 219.895 58.5906 223.196 56.8431C231.514 52.4478 239.189 46.1899 243.657 38.0078C243.701 38.7004 243.883 39.3772 244.193 39.9985C244.503 40.6198 244.935 41.1732 245.462 41.626C247.523 43.2707 250.293 43.6037 252.807 44.3931C261.974 47.2713 267.472 56.3908 271.882 64.9101C272.329 65.7221 272.706 66.5708 273.007 67.447Z" fill="black"/>
<path opacity="0.1" d="M275.435 110.812C271.478 107.112 269.298 101.931 267.641 96.7834C266.647 93.8917 265.983 90.8973 265.663 87.8571C265.279 92.0797 266.33 96.401 267.641 100.484C269.29 105.632 271.478 110.82 275.435 114.513C279.392 118.205 285.529 120.039 290.397 117.654C289.812 116.655 289.231 115.639 288.654 114.615C284.132 115.886 278.939 114.077 275.435 110.812Z" fill="black"/>
<path opacity="0.1" d="M224.606 110.183C223.81 116.527 219.919 124.204 213.584 126.712C209.186 128.451 202.925 126.453 198.148 125.347C197.737 126.501 197.267 127.633 196.739 128.739C201.635 129.709 208.737 132.328 213.584 130.412C219.919 127.904 223.81 120.228 224.606 113.884C224.77 112.296 224.8 110.698 224.696 109.106C224.672 109.464 224.634 109.825 224.606 110.183Z" fill="black"/>
</g>
<path d="M274.549 212.127C268.181 211.119 261.718 209.175 255.404 210.482C251.743 211.239 248.397 213.056 245.355 215.252C247.028 216.588 248.982 217.78 250.045 219.639C250.705 220.924 251.201 222.288 251.521 223.697C252.189 226.164 252.86 228.68 252.963 231.246C253.066 233.811 252.551 236.484 251.018 238.552C259.047 239.342 266.829 237.368 274.66 235.44C275.556 235.283 276.408 234.94 277.162 234.432C278.399 233.462 278.761 231.735 278.77 230.16C278.77 227.348 277.978 224.605 277.175 221.908C276.218 218.672 275.509 215.342 274.549 212.127Z" fill="white"/>
<path d="M317.547 142.776C320.708 143.187 323.161 145.732 324.966 148.347C330.032 155.625 332.216 164.448 334.648 172.972C337.671 183.571 341.225 194.004 345.311 204.269C346.191 206.64 347.26 208.936 348.51 211.136C349.528 212.834 350.764 214.466 351.213 216.395C352.302 221.057 348.448 225.44 344.429 228.039C342.287 229.479 339.948 230.603 337.484 231.377C335.085 232.093 332.583 232.364 330.098 232.635L307.218 235.102C296.687 236.245 286.061 237.388 275.526 236.287C274.862 233.984 276.165 232.356 276.07 229.959C276.004 228.244 275.246 226.649 274.57 225.07C273.323 222.258 272.5 219.278 272.125 216.226C272.006 215.104 271.965 213.952 271.536 212.908C271.107 211.864 270.188 210.926 269.063 210.852C275.246 210.239 279.94 209.076 286.123 208.459C288.419 208.229 290.805 207.97 292.763 206.753C295.191 205.244 296.551 202.522 297.631 199.882C300.306 193.345 302.029 186.141 300.623 179.217C299.469 173.539 296.25 168.252 296.266 162.458C296.266 159.009 297.445 155.666 298.838 152.508C300.314 149.17 302.239 145.757 305.479 144.063C308.718 142.369 313.891 142.283 317.547 142.776Z" fill="#CECECE"/>
<path opacity="0.08" d="M317.547 142.776C320.708 143.187 323.161 145.732 324.966 148.347C330.032 155.625 332.216 164.448 334.648 172.972C337.671 183.571 341.225 194.004 345.311 204.269C346.191 206.64 347.26 208.936 348.51 211.136C349.528 212.834 350.764 214.466 351.213 216.395C352.302 221.057 348.448 225.44 344.429 228.039C342.287 229.479 339.948 230.603 337.484 231.377C335.085 232.093 332.583 232.364 330.098 232.635L307.218 235.102C296.687 236.245 286.061 237.388 275.526 236.287C274.862 233.984 276.165 232.356 276.07 229.959C276.004 228.244 275.246 226.649 274.57 225.07C273.323 222.258 272.5 219.278 272.125 216.226C272.006 215.104 271.965 213.952 271.536 212.908C271.107 211.864 270.188 210.926 269.063 210.852C275.246 210.239 279.94 209.076 286.123 208.459C288.419 208.229 290.805 207.97 292.763 206.753C295.191 205.244 296.551 202.522 297.631 199.882C300.306 193.345 302.029 186.141 300.623 179.217C299.469 173.539 296.25 168.252 296.266 162.458C296.266 159.009 297.445 155.666 298.838 152.508C300.314 149.17 302.239 145.757 305.479 144.063C308.718 142.369 313.891 142.283 317.547 142.776Z" fill="black"/>
<path d="M174.271 137.435C175.768 133.891 177.288 130.231 177.33 126.387C177.375 122.23 175.681 118.283 174.387 114.336C172.786 109.506 171.721 104.517 171.209 99.456C171.103 98.9712 171.176 98.4644 171.415 98.0292C171.757 97.5482 172.417 97.4495 172.998 97.322C175.85 96.6724 178.006 94.374 179.786 92.0592C182.549 88.4842 184.881 84.5981 186.735 80.4809C188.1 77.4506 189.946 73.7542 193.277 73.7255C191.936 80.0077 190.274 86.2175 188.298 92.3305C191.78 91.4424 195.09 90.1514 198.573 89.2633C199.255 89.0485 199.969 88.9539 200.683 88.9837C202.769 89.2016 204.047 92.0181 202.835 93.7244C204.537 95.7144 207.369 96.2489 209.595 97.614C211.82 98.979 213.42 102.359 211.441 104.073C211.054 104.406 210.563 104.641 210.283 105.068C209.327 106.54 211.668 108.23 211.474 109.973C211.318 111.4 209.483 112.066 208.094 111.688C206.705 111.31 205.621 110.274 204.385 109.513C203.148 108.752 201.532 108.28 200.333 109.069C200.012 112.938 199.665 116.881 197.988 120.405C197.374 121.692 196.586 122.896 196.092 124.233C195.619 125.69 195.325 127.199 195.218 128.727L193.722 142.373C186.583 143.8 180.182 141.666 174.271 137.435Z" fill="#EFB7B9"/>
<path d="M172.528 149.667L171.213 140.79C171.087 140.067 171.017 139.336 171.003 138.603C171.003 136.547 171.909 134.586 172.787 132.715C180.062 136.103 187.927 137.308 195.952 137.312C197.011 137.312 198.219 137.213 198.878 136.387C200.242 137.953 200.284 140.473 199.702 142.463C199.121 144.454 198.004 146.246 197.262 148.187C196.887 149.17 196.582 150.243 195.865 150.999C194.752 152.196 192.947 152.401 191.306 152.393C189.581 152.382 187.859 152.218 186.162 151.904C181.769 151.09 176.921 148.882 172.528 149.667Z" fill="white"/>
<path d="M199.661 149.305C194.014 148.664 188.405 147.759 182.832 146.592C180.099 146.02 177.342 145.383 174.556 145.494C172.742 145.568 170.793 145.93 169.197 145.033C170.751 150.308 170.846 155.867 168.987 161.044C167.887 164.128 166.209 167.002 165.401 170.176C163.72 176.816 166.028 184.057 163.926 190.578C163.703 191.43 163.266 192.211 162.656 192.847C162.013 193.435 161.135 193.74 160.542 194.377C159.668 195.314 159.614 196.725 159.61 198.003L159.573 209.331C159.548 216.543 159.643 224.19 163.46 230.3C167.813 237.29 176.975 240.912 184.951 238.786C187.071 238.245 189.058 237.276 190.787 235.937C193.557 233.741 195.321 230.567 197.048 227.475C199.109 223.775 201.17 219.992 201.833 215.827C202.303 212.879 202.039 209.869 201.701 206.905C199.838 190.458 195.795 174.152 196.665 157.644C196.795 154.626 197.84 151.718 199.661 149.305Z" fill="#CECECE"/>
<path d="M223.262 217.558C220.398 217.723 217.512 217.887 214.66 217.558C212.599 217.311 210.588 216.806 208.544 216.46C202.96 215.561 197.248 215.877 191.799 217.387C186.35 218.898 181.293 221.566 176.975 225.21C175.392 226.558 173.793 228.627 174.667 230.514C175.607 232.545 178.48 232.487 180.693 232.109C178.304 233.247 176.194 234.893 174.51 236.932C173.892 237.684 173.307 238.577 173.426 239.551C173.678 241.586 176.448 241.956 178.496 241.78C177.828 242.495 178.278 243.761 179.127 244.247C179.976 244.732 181.031 244.633 181.991 244.456C184.114 244.068 186.166 243.36 188.075 242.355C187.687 243.363 188.359 244.543 189.311 245.044C190.264 245.546 191.422 245.509 192.489 245.336C197.526 244.514 201.73 241.019 206.643 239.646C214.499 237.454 222.718 240.949 230.883 241.196C233.439 241.274 236.06 241.015 238.389 239.962C241.245 238.667 243.549 236.237 246.567 235.374C249.918 234.42 253.763 235.518 256.83 233.869C259.06 232.672 257.048 223.45 256.479 221.674C255.437 218.426 254.39 216.271 250.915 215.942C242.123 215.083 232.12 217.048 223.262 217.558Z" fill="#EFB7B9"/>
<path d="M245.194 215.042C245.194 215.042 258.503 226.279 250.824 238.54L265.663 233.429V222.702C265.663 222.192 260.028 214.532 260.028 214.532L253.371 213.508L245.194 215.042Z" fill="white"/>
<path d="M105.842 214.347H110.834C113.567 214.347 116.187 215.43 118.12 217.358C120.052 219.285 121.138 221.9 121.138 224.626V239.884H95.5378V224.626C95.5378 223.276 95.8044 221.939 96.3222 220.692C96.8401 219.445 97.5991 218.312 98.5559 217.358C99.5128 216.403 100.649 215.646 101.899 215.129C103.149 214.613 104.489 214.347 105.842 214.347Z" fill="#3F3D56"/>
<path opacity="0.1" d="M105.842 214.347H110.834C113.567 214.347 116.187 215.43 118.12 217.358C120.052 219.285 121.138 221.9 121.138 224.626V239.884H95.5378V224.626C95.5378 223.276 95.8044 221.939 96.3222 220.692C96.8401 219.445 97.5991 218.312 98.5559 217.358C99.5128 216.403 100.649 215.646 101.899 215.129C103.149 214.613 104.489 214.347 105.842 214.347Z" fill="black"/>
<path d="M107.314 219.963C108.445 219.963 109.362 219.049 109.362 217.92C109.362 216.791 108.445 215.876 107.314 215.876C106.182 215.876 105.265 216.791 105.265 217.92C105.265 219.049 106.182 219.963 107.314 219.963Z" fill="#3F3D56"/>
<path d="M107.314 217.41C108.445 217.41 109.362 216.495 109.362 215.367C109.362 214.238 108.445 213.323 107.314 213.323C106.182 213.323 105.265 214.238 105.265 215.367C105.265 216.495 106.182 217.41 107.314 217.41Z" fill="#3F3D56"/>
<path d="M107.314 214.857C108.445 214.857 109.362 213.942 109.362 212.813C109.362 211.685 108.445 210.77 107.314 210.77C106.182 210.77 105.265 211.685 105.265 212.813C105.265 213.942 106.182 214.857 107.314 214.857Z" fill="#3F3D56"/>
<path d="M107.314 212.303C108.445 212.303 109.362 211.389 109.362 210.26C109.362 209.131 108.445 208.217 107.314 208.217C106.182 208.217 105.265 209.131 105.265 210.26C105.265 211.389 106.182 212.303 107.314 212.303Z" fill="#3F3D56"/>
<path d="M107.314 209.75C108.445 209.75 109.362 208.835 109.362 207.707C109.362 206.578 108.445 205.663 107.314 205.663C106.182 205.663 105.265 206.578 105.265 207.707C105.265 208.835 106.182 209.75 107.314 209.75Z" fill="#3F3D56"/>
<path d="M107.314 207.197C108.445 207.197 109.362 206.282 109.362 205.153C109.362 204.025 108.445 203.11 107.314 203.11C106.182 203.11 105.265 204.025 105.265 205.153C105.265 206.282 106.182 207.197 107.314 207.197Z" fill="#3F3D56"/>
<path d="M107.314 204.639C108.445 204.639 109.362 203.725 109.362 202.596C109.362 201.467 108.445 200.552 107.314 200.552C106.182 200.552 105.265 201.467 105.265 202.596C105.265 203.725 106.182 204.639 107.314 204.639Z" fill="#3F3D56"/>
<path d="M110.388 205.663C111.52 205.663 112.437 204.748 112.437 203.62C112.437 202.491 111.52 201.576 110.388 201.576C109.257 201.576 108.34 202.491 108.34 203.62C108.34 204.748 109.257 205.663 110.388 205.663Z" fill="#3F3D56"/>
<path d="M112.437 204.639C113.568 204.639 114.485 203.725 114.485 202.596C114.485 201.467 113.568 200.552 112.437 200.552C111.306 200.552 110.388 201.467 110.388 202.596C110.388 203.725 111.306 204.639 112.437 204.639Z" fill="#3F3D56"/>
<path d="M114.485 203.62C115.617 203.62 116.534 202.705 116.534 201.576C116.534 200.448 115.617 199.533 114.485 199.533C113.354 199.533 112.437 200.448 112.437 201.576C112.437 202.705 113.354 203.62 114.485 203.62Z" fill="#3F3D56"/>
<path d="M107.314 202.086C108.445 202.086 109.362 201.171 109.362 200.043C109.362 198.914 108.445 197.999 107.314 197.999C106.182 197.999 105.265 198.914 105.265 200.043C105.265 201.171 106.182 202.086 107.314 202.086Z" fill="#3F3D56"/>
<path d="M107.314 199.533C108.445 199.533 109.362 198.618 109.362 197.489C109.362 196.361 108.445 195.446 107.314 195.446C106.182 195.446 105.265 196.361 105.265 197.489C105.265 198.618 106.182 199.533 107.314 199.533Z" fill="#3F3D56"/>
<path d="M107.314 196.979C108.445 196.979 109.362 196.065 109.362 194.936C109.362 193.807 108.445 192.893 107.314 192.893C106.182 192.893 105.265 193.807 105.265 194.936C105.265 196.065 106.182 196.979 107.314 196.979Z" fill="#3F3D56"/>
<path d="M107.314 194.426C108.445 194.426 109.362 193.511 109.362 192.383C109.362 191.254 108.445 190.339 107.314 190.339C106.182 190.339 105.265 191.254 105.265 192.383C105.265 193.511 106.182 194.426 107.314 194.426Z" fill="#3F3D56"/>
<path d="M115.821 185.792C115.31 185.866 114.799 185.919 114.288 185.952C114.763 185.539 115.204 185.088 115.607 184.603C115.323 183.745 114.906 182.936 114.37 182.206C113.862 182.491 113.301 182.667 112.721 182.724C112.214 182.798 111.703 182.852 111.192 182.889C111.864 182.342 112.491 181.52 113.15 180.833C111.672 179.497 109.78 178.708 107.788 178.599C105.797 178.489 103.829 179.066 102.213 180.232C100.597 181.397 99.4319 183.082 98.9127 185.002C98.3934 186.923 98.5516 188.963 99.3608 190.781C100.17 192.6 101.581 194.085 103.357 194.989C105.134 195.893 107.167 196.161 109.118 195.747C111.069 195.333 112.817 194.264 114.071 192.717C115.326 191.17 116.009 189.241 116.006 187.251C116.007 186.751 115.962 186.251 115.874 185.759L115.821 185.792Z" fill="#CECECE"/>
<path d="M122.651 195.943C122.128 196.264 121.539 196.46 120.928 196.515C120.421 196.589 119.91 196.646 119.399 196.679C119.942 196.193 120.449 195.668 120.915 195.109C119.68 194.787 118.369 194.937 117.239 195.529C116.109 196.121 115.241 197.111 114.804 198.308C114.367 199.504 114.393 200.82 114.877 201.998C115.361 203.176 116.269 204.132 117.422 204.678C118.574 205.224 119.89 205.322 121.111 204.952C122.333 204.582 123.372 203.771 124.026 202.678C124.679 201.584 124.901 200.287 124.646 199.039C124.392 197.791 123.68 196.683 122.651 195.931V195.943Z" fill="#CECECE"/>
<path d="M104.243 205.663C105.374 205.663 106.291 204.748 106.291 203.62C106.291 202.491 105.374 201.576 104.243 201.576C103.111 201.576 102.194 202.491 102.194 203.62C102.194 204.748 103.111 205.663 104.243 205.663Z" fill="#3F3D56"/>
<path d="M102.194 204.639C103.326 204.639 104.243 203.725 104.243 202.596C104.243 201.467 103.326 200.552 102.194 200.552C101.063 200.552 100.146 201.467 100.146 202.596C100.146 203.725 101.063 204.639 102.194 204.639Z" fill="#3F3D56"/>
<path d="M100.146 203.62C101.277 203.62 102.194 202.705 102.194 201.576C102.194 200.448 101.277 199.533 100.146 199.533C99.0146 199.533 98.0974 200.448 98.0974 201.576C98.0974 202.705 99.0146 203.62 100.146 203.62Z" fill="#3F3D56"/>
<path d="M91.9807 195.943C92.5031 196.264 93.0927 196.46 93.7036 196.515C94.2105 196.589 94.7216 196.646 95.2327 196.679C94.6885 196.194 94.1815 195.669 93.7159 195.109C94.951 194.787 96.2618 194.937 97.392 195.529C98.5222 196.121 99.3906 197.111 99.8274 198.308C100.264 199.504 100.238 200.82 99.7539 201.998C99.2698 203.176 98.3626 204.132 97.2097 204.678C96.0568 205.224 94.7411 205.322 93.5198 204.952C92.2985 204.582 91.2594 203.771 90.6057 202.678C89.952 201.584 89.7306 200.287 89.9849 199.039C90.2392 197.791 90.9508 196.683 91.9807 195.931V195.943Z" fill="#CECECE"/>
<path d="M105.842 215.86H110.834C113.566 215.86 116.187 216.943 118.12 218.871C120.052 220.798 121.138 223.413 121.138 226.139V239.654C121.138 240.116 120.954 240.56 120.626 240.887C120.298 241.214 119.854 241.397 119.39 241.397H97.273C96.8095 241.397 96.365 241.214 96.0373 240.887C95.7095 240.56 95.5254 240.116 95.5254 239.654V226.139C95.5254 224.788 95.7923 223.451 96.3109 222.203C96.8296 220.955 97.5897 219.821 98.5478 218.866C99.506 217.912 100.643 217.155 101.895 216.639C103.147 216.123 104.488 215.858 105.842 215.86Z" fill="#3F3D56"/>
<g opacity="0.1">
<path opacity="0.1" d="M115.961 186.351C115.754 186.572 115.533 186.781 115.302 186.976C115.536 186.976 115.767 186.939 116.002 186.914C115.994 186.725 115.982 186.536 115.961 186.351Z" fill="black"/>
<path opacity="0.1" d="M112.227 183.909C112.742 183.876 113.249 183.822 113.76 183.748C114.219 183.69 114.667 183.569 115.091 183.386C114.883 182.975 114.643 182.581 114.374 182.206C114.118 182.362 113.84 182.48 113.55 182.556C113.146 183.041 112.703 183.494 112.227 183.909Z" fill="black"/>
<path opacity="0.1" d="M99.6348 188.296C99.6317 186.737 100.05 185.206 100.846 183.865C101.642 182.523 102.786 181.42 104.157 180.673C105.528 179.925 107.076 179.561 108.638 179.617C110.199 179.673 111.717 180.149 113.03 180.993L113.162 180.854C112.305 180.093 111.305 179.509 110.221 179.135C109.136 178.761 107.988 178.605 106.843 178.676C105.698 178.747 104.578 179.043 103.548 179.548C102.518 180.052 101.598 180.755 100.842 181.616C100.086 182.476 99.5073 183.478 99.1406 184.562C98.7739 185.647 98.6259 186.793 98.7053 187.935C98.7846 189.077 99.0897 190.192 99.6029 191.216C100.116 192.239 100.827 193.152 101.696 193.9C100.363 192.336 99.632 190.349 99.6348 188.296Z" fill="black"/>
</g>
<g opacity="0.1">
<path opacity="0.1" d="M119.398 197.699C119.91 197.666 120.421 197.613 120.928 197.539C121.539 197.482 122.128 197.285 122.65 196.963C123.229 197.388 123.712 197.93 124.067 198.553C124.422 199.177 124.641 199.868 124.711 200.581C124.731 200.402 124.741 200.223 124.74 200.043C124.744 199.244 124.56 198.456 124.202 197.742C123.844 197.027 123.322 196.407 122.679 195.931C122.157 196.252 121.567 196.447 120.956 196.503L120.544 196.556C120.193 196.966 119.809 197.348 119.398 197.699Z" fill="black"/>
<path opacity="0.1" d="M119.605 195.956C119.775 195.958 119.946 195.97 120.116 195.993C120.384 195.709 120.647 195.405 120.915 195.109C120.157 194.907 119.363 194.882 118.594 195.035C117.825 195.188 117.102 195.516 116.48 195.993C115.858 196.47 115.355 197.084 115.009 197.786C114.663 198.488 114.484 199.26 114.485 200.043C114.485 200.215 114.485 200.384 114.51 200.552C114.637 199.293 115.228 198.125 116.17 197.275C117.111 196.426 118.335 195.955 119.605 195.956Z" fill="black"/>
</g>
<g opacity="0.1">
<path opacity="0.1" d="M95.2328 197.699C94.7217 197.666 94.2106 197.613 93.7037 197.539C93.0925 197.482 92.5029 197.285 91.9808 196.963C91.4021 197.388 90.9195 197.93 90.5644 198.553C90.2094 199.177 89.9898 199.868 89.9199 200.581C89.8999 200.402 89.8903 200.223 89.8911 200.043C89.8872 199.244 90.0717 198.456 90.4297 197.742C90.7877 197.027 91.3092 196.407 91.9519 195.931C92.4743 196.252 93.064 196.447 93.6748 196.503L94.087 196.556C94.4365 196.968 94.8197 197.35 95.2328 197.699Z" fill="black"/>
<path opacity="0.1" d="M95.0268 195.956C94.8545 195.958 94.6824 195.97 94.5116 195.993C94.2478 195.709 93.984 195.405 93.7161 195.109C94.4738 194.907 95.268 194.882 96.0371 195.035C96.8062 195.188 97.5296 195.516 98.1512 195.993C98.7729 196.47 99.2762 197.084 99.6221 197.786C99.968 198.488 100.147 199.26 100.146 200.043C100.146 200.215 100.146 200.384 100.121 200.552C99.9945 199.293 99.4031 198.125 98.4617 197.275C97.5203 196.426 96.2961 195.955 95.0268 195.956Z" fill="black"/>
</g>
<path d="M81.1364 246.339H40.867C40.4134 246.339 39.9783 246.16 39.6575 245.84C39.3367 245.52 39.1565 245.086 39.1565 244.633V225.621C39.1564 225.333 39.2294 225.05 39.3686 224.798C39.5079 224.545 39.7088 224.332 39.9528 224.178C40.1968 224.024 40.4758 223.935 40.7639 223.917C41.0521 223.9 41.3399 223.956 41.6007 224.079C53.1704 229.556 65.6346 231.435 80.345 224.165C80.6058 224.037 80.895 223.977 81.1854 223.991C81.4758 224.005 81.7579 224.092 82.0052 224.245C82.2525 224.397 82.4569 224.61 82.5991 224.863C82.7413 225.116 82.8166 225.401 82.8181 225.691V244.604C82.8219 244.828 82.7814 245.051 82.699 245.26C82.6165 245.468 82.4937 245.658 82.3376 245.819C82.1814 245.98 81.9949 246.109 81.7889 246.199C81.5828 246.288 81.3611 246.336 81.1364 246.339Z" fill="#CECECE"/>
<path opacity="0.1" d="M81.1364 246.339H40.867C40.4134 246.339 39.9783 246.16 39.6575 245.84C39.3367 245.52 39.1565 245.086 39.1565 244.633V225.621C39.1564 225.333 39.2294 225.05 39.3686 224.798C39.5079 224.545 39.7088 224.332 39.9528 224.178C40.1968 224.024 40.4758 223.935 40.7639 223.917C41.0521 223.9 41.3399 223.956 41.6007 224.079C53.1704 229.556 65.6346 231.435 80.345 224.165C80.6058 224.037 80.895 223.977 81.1854 223.991C81.4758 224.005 81.7579 224.092 82.0052 224.245C82.2525 224.397 82.4569 224.61 82.5991 224.863C82.7413 225.116 82.8166 225.401 82.8181 225.691V244.604C82.8219 244.828 82.7814 245.051 82.699 245.26C82.6165 245.468 82.4937 245.658 82.3376 245.819C82.1814 245.98 81.9949 246.109 81.7889 246.199C81.5828 246.288 81.3611 246.336 81.1364 246.339Z" fill="black"/>
<path d="M60.7215 231.887C62.0372 231.887 63.1039 230.494 63.1039 228.775C63.1039 227.056 62.0372 225.662 60.7215 225.662C59.4057 225.662 58.3391 227.056 58.3391 228.775C58.3391 230.494 59.4057 231.887 60.7215 231.887Z" fill="#3F3D56"/>
<path d="M60.7215 228.084C62.0372 228.084 63.1039 226.69 63.1039 224.971C63.1039 223.252 62.0372 221.859 60.7215 221.859C59.4057 221.859 58.3391 223.252 58.3391 224.971C58.3391 226.69 59.4057 228.084 60.7215 228.084Z" fill="#3F3D56"/>
<path d="M60.7215 224.276C62.0372 224.276 63.1039 222.883 63.1039 221.164C63.1039 219.445 62.0372 218.052 60.7215 218.052C59.4057 218.052 58.3391 219.445 58.3391 221.164C58.3391 222.883 59.4057 224.276 60.7215 224.276Z" fill="#3F3D56"/>
<path d="M60.7215 220.473C62.0372 220.473 63.1039 219.08 63.1039 217.361C63.1039 215.642 62.0372 214.248 60.7215 214.248C59.4057 214.248 58.3391 215.642 58.3391 217.361C58.3391 219.08 59.4057 220.473 60.7215 220.473Z" fill="#3F3D56"/>
<path d="M60.7215 216.666C62.0372 216.666 63.1039 215.272 63.1039 213.553C63.1039 211.834 62.0372 210.441 60.7215 210.441C59.4057 210.441 58.3391 211.834 58.3391 213.553C58.3391 215.272 59.4057 216.666 60.7215 216.666Z" fill="#3F3D56"/>
<path d="M60.7215 212.859C62.0372 212.859 63.1039 211.465 63.1039 209.746C63.1039 208.027 62.0372 206.634 60.7215 206.634C59.4057 206.634 58.3391 208.027 58.3391 209.746C58.3391 211.465 59.4057 212.859 60.7215 212.859Z" fill="#3F3D56"/>
<path d="M60.7215 209.055C62.0372 209.055 63.1039 207.662 63.1039 205.943C63.1039 204.224 62.0372 202.83 60.7215 202.83C59.4057 202.83 58.3391 204.224 58.3391 205.943C58.3391 207.662 59.4057 209.055 60.7215 209.055Z" fill="#3F3D56"/>
<path d="M69.6574 179.9C69.9809 179.485 70.2769 179.05 70.5436 178.596L64.2786 177.568L71.0547 177.618C71.7085 176.205 72.0651 174.673 72.1027 173.118C72.1403 171.562 71.858 170.015 71.2732 168.572L62.1847 173.276L70.5683 167.109C69.7833 165.754 68.7272 164.576 67.4657 163.647C66.2042 162.717 64.7643 162.057 63.2359 161.707C61.7074 161.357 60.1231 161.325 58.5816 161.613C57.0401 161.9 55.5745 162.501 54.2761 163.379C52.9777 164.256 51.8743 165.39 51.0347 166.712C50.195 168.033 49.6371 169.512 49.3958 171.058C49.1544 172.604 49.2347 174.182 49.6316 175.696C50.0286 177.209 50.7338 178.625 51.7031 179.855C51.1938 180.497 50.757 181.193 50.4007 181.931L58.5287 186.191L49.8731 183.271C49.2664 185.066 49.1172 186.983 49.4388 188.849C49.7605 190.715 50.5429 192.472 51.7155 193.962C50.3904 195.642 49.5661 197.661 49.3368 199.787C49.1076 201.912 49.4826 204.06 50.4191 205.983C51.3555 207.906 52.8156 209.528 54.6324 210.662C56.4491 211.797 58.5493 212.398 60.6927 212.398C62.836 212.398 64.9362 211.797 66.7529 210.662C68.5697 209.528 70.0298 207.906 70.9662 205.983C71.9027 204.06 72.2777 201.912 72.0485 199.787C71.8192 197.661 70.9949 195.642 69.6698 193.962C71.2529 191.953 72.1136 189.473 72.1136 186.918C72.1136 184.364 71.2529 181.883 69.6698 179.875L69.6574 179.9Z" fill="#CECECE"/>
<path opacity="0.1" d="M49.2506 186.943C49.2469 189.498 50.1081 191.98 51.6948 193.986C50.3697 195.667 49.5454 197.685 49.3161 199.811C49.0869 201.937 49.4619 204.084 50.3984 206.008C51.3348 207.931 52.7949 209.553 54.6117 210.687C56.4284 211.822 58.5286 212.423 60.672 212.423C62.8153 212.423 64.9155 211.822 66.7323 210.687C68.549 209.553 70.0091 207.931 70.9455 206.008C71.882 204.084 72.257 201.937 72.0278 199.811C71.7985 197.685 70.9742 195.667 69.6491 193.986C71.1783 192.05 49.2506 185.664 49.2506 186.943Z" fill="black"/>
<path d="M81.1364 247.347H40.867C40.4134 247.347 39.9783 247.167 39.6575 246.847C39.3367 246.527 39.1565 246.093 39.1565 245.64V225.621C39.1564 225.333 39.2294 225.05 39.3686 224.798C39.5079 224.545 39.7088 224.332 39.9528 224.178C40.1968 224.024 40.4758 223.935 40.7639 223.917C41.0521 223.9 41.3399 223.956 41.6007 224.079C53.1704 229.556 62.3454 235.941 80.345 224.165C81.4126 223.467 82.8181 224.42 82.8181 225.691V245.632C82.8203 246.081 82.645 246.513 82.3302 246.834C82.0154 247.155 81.5865 247.339 81.1364 247.347Z" fill="#CECECE"/>
<path d="M379.954 241.685L320.544 249.526L317.572 249.917L288.526 234.44V230.818L379.295 220.942L379.954 241.685Z" fill="#9C9CA1"/>
<path d="M305.359 236.085L369.72 228.516L369.061 240.369L318.928 244.037L305.359 236.085Z" fill="#939498"/>
<path opacity="0.4" d="M320.544 245.632V249.522L317.572 249.933L288.522 234.44V230.818L316.249 245.62C316.249 245.62 319.884 245.961 320.544 245.632Z" fill="black"/>
<path d="M331.948 183.896L318.61 245.591C318.476 246.209 318.492 246.85 318.659 247.46C318.825 248.07 319.136 248.631 319.565 249.096C319.994 249.561 320.529 249.916 321.125 250.131C321.721 250.346 322.36 250.415 322.988 250.332L407.372 239.189C408.107 239.093 408.8 238.792 409.372 238.32C409.943 237.849 410.37 237.227 410.604 236.525L428.809 181.758C429.01 181.151 429.06 180.503 428.955 179.872C428.85 179.241 428.592 178.645 428.204 178.135C427.816 177.625 427.31 177.217 426.729 176.946C426.148 176.674 425.51 176.548 424.869 176.578L335.625 180.804C334.757 180.845 333.926 181.17 333.262 181.729C332.597 182.288 332.136 183.05 331.948 183.896Z" fill="#3F3D56"/>
<path d="M378.316 206.657C378.523 204.692 377.665 202.992 376.399 202.859C375.134 202.726 373.94 204.211 373.733 206.176C373.526 208.141 374.384 209.841 375.65 209.974C376.915 210.107 378.109 208.621 378.316 206.657Z" fill="white"/>
</g>
<defs>
<clipPath id="clip0">
<rect width="474" height="258" fill="white"/>
</clipPath>
</defs>
</svg>
